<?xml version="1.0" encoding="UTF-8" standalone="no"?>
<svg width="52px" height="52px" viewBox="0 0 52 52" version="1.1" xmlns="http://www.w3.org/2000/svg" xmlns:xlink="http://www.w3.org/1999/xlink">
    <!-- Generator: Sketch 3.8.1 (29687) - http://www.bohemiancoding.com/sketch -->
    <title>MORE INFO IMG</title>
    <desc>Created with Sketch.</desc>
    <defs></defs>
    <g id="LISTING-INFO-PAGES-MAIN---Old-Gov-House." stroke="none" stroke-width="1" fill="none" fill-rule="evenodd">
        <g id="STORY-MAIN-PAGE" transform="translate(-199.000000, -368.000000)" stroke="#628529">
            <g id="MORE-INFO" transform="translate(193.000000, 369.000000)">
                <g id="MORE-INFO-IMG" transform="translate(7.000000, 0.000000)">
                    <circle id="Oval-3-Copy-2" cx="25" cy="25" r="25"></circle>
                    <g id="more-infogram" transform="translate(19.000000, 10.000000)" stroke-width="1.5">
                        <path d="M10.862239,23.746 C10.1601091,23.746 9.59083636,23.1735065 9.59083636,22.4681558 L9.59083636,19.4245195 L6.56169351,19.4245195 C5.85956364,19.4245195 5.28948571,18.8528312 5.28948571,18.1466753 C5.28948571,17.4413247 5.85956364,16.868026 6.56169351,16.868026 L9.59083636,16.868026 L9.59083636,13.8251948 C9.59083636,13.1198442 10.1601091,12.5473506 10.862239,12.5473506 C11.5643688,12.5473506 12.1336416,13.1198442 12.1336416,13.8251948 L12.1336416,16.868026 L15.1627844,16.868026 C15.8657195,16.868026 16.4349922,17.4413247 16.4349922,18.1466753 C16.4349922,18.8528312 15.8657195,19.4245195 15.1627844,19.4245195 L12.1336416,19.4245195 L12.1336416,22.4681558 C12.1336416,23.1735065 11.5643688,23.746 10.862239,23.746 L10.862239,23.746 Z" id="Stroke-1"></path>
                        <path d="M3.70462078,5.01370649 C4.31495844,5.01370649 4.83430909,4.79791429 5.26347792,4.36632987 C5.69345195,3.93474545 5.90843896,3.41217403 5.90843896,2.79942078 C5.90843896,2.19874545 5.69345195,1.68342078 5.26347792,1.25103117 C4.83430909,0.819446753 4.31495844,0.603654545 3.70462078,0.603654545 C3.09428312,0.603654545 2.57734805,0.816225974 2.15462078,1.24217403 C1.73108831,1.66731688 1.51932208,2.18666753 1.51932208,2.79942078 C1.51932208,3.41217403 1.73430909,3.93474545 2.16428312,4.36632987 C2.59345195,4.79791429 3.10716623,5.01370649 3.70462078,5.01370649 L3.70462078,5.01370649 Z" id="Stroke-3"></path>
                        <polyline id="Stroke-5" stroke-linecap="round" stroke-linejoin="round" points="6.34090909 16.7377455 6.34090909 8.41122597 0.603896104 8.41122597 0.603896104 10.9733558 3.15394805 10.9733558 3.15394805 28.2665247 6.34090909 28.2665247 6.34090909 19.6203429"></polyline>
                    </g>
                </g>
            </g>
        </g>
    </g>
</svg>