<?xml version="1.0" encoding="UTF-8" standalone="no"?>
<svg width="52px" height="52px" viewBox="0 0 52 52" version="1.1" xmlns="http://www.w3.org/2000/svg" xmlns:xlink="http://www.w3.org/1999/xlink">
    <!-- Generator: Sketch 3.8.1 (29687) - http://www.bohemiancoding.com/sketch -->
    <title>VIRTUAL TOUR IMG</title>
    <desc>Created with Sketch.</desc>
    <defs></defs>
    <g id="LISTING-INFO-PAGES-MAIN---Old-Gov-House." stroke="none" stroke-width="1" fill="none" fill-rule="evenodd">
        <g id="STORY-MAIN-PAGE" transform="translate(-286.000000, -368.000000)" stroke="#628529">
            <g id="VIRTUAL-TOUR" transform="translate(275.000000, 369.000000)">
                <g id="VIRTUAL-TOUR-IMG" transform="translate(12.000000, 0.000000)">
                    <polygon id="Stroke-1" stroke-width="1.5" stroke-linejoin="round" points="22.7008197 22.092212 28.9933279 25.0236994 22.7008197 27.9551868"></polygon>
                    <g id="Group-8" transform="translate(11.173960, 12.012743)" stroke-width="1.5" stroke-linejoin="round">
                        <path d="M24.8469117,19.3090455 C22.6773568,23.2151018 18.5547038,25.8523807 13.8259716,25.8523807 C9.06188099,25.8523807 4.91293584,23.1752582 2.75675363,19.2210671" id="Stroke-2"></path>
                        <path d="M2.80577941,6.69423421 C4.975561,2.78886889 9.0977607,0.152050609 13.8260396,0.152050609 C18.5905835,0.152050609 22.739982,2.82940343 24.8959375,6.7845157" id="Stroke-4"></path>
                        <path d="M24.8965721,6.78426235 C22.629555,6.26928937 18.9008307,5.66956234 13.8259942,5.66956234 C4.81640288,5.66956234 0.169946959,7.5120417 0.169946959,7.5120417 L0.169946959,18.4922975 C0.169946959,18.4922975 4.92973108,20.3347768 13.8259942,20.3347768 C18.99036,20.3347768 22.7213508,19.729292 24.9650224,19.2127069 C26.6357066,18.827859 27.4820415,18.4922975 27.4820415,18.4922975 L27.4820415,7.5120417 C27.4820415,7.5120417 26.603748,7.17210426 24.8965721,6.78426235 L24.8965721,6.78426235 Z" id="Stroke-6"></path>
                    </g>
                    <circle id="Oval-3-Copy-3" cx="25" cy="25" r="25"></circle>
                </g>
            </g>
        </g>
    </g>
</svg>